<svg width="48" height="48" viewBox="0 0 48 48" fill="none" xmlns="http://www.w3.org/2000/svg">
<circle cx="24" cy="24" r="24" fill="#FDFDFD"/>
<path d="M9.96701 40V31.2727H13.0778C13.7568 31.2727 14.3193 31.3963 14.7653 31.6435C15.2113 31.8906 15.5451 32.2287 15.7667 32.6577C15.9883 33.0838 16.0991 33.5639 16.0991 34.098C16.0991 34.6349 15.9869 35.1179 15.7625 35.5469C15.5409 35.973 15.2056 36.3111 14.7568 36.5611C14.3108 36.8082 13.7497 36.9318 13.0735 36.9318H10.9343V35.8153H12.9542C13.3832 35.8153 13.7312 35.7415 13.9983 35.5938C14.2653 35.4432 14.4613 35.2386 14.5863 34.9801C14.7113 34.7216 14.7738 34.4276 14.7738 34.098C14.7738 33.7685 14.7113 33.4759 14.5863 33.2202C14.4613 32.9645 14.2639 32.7642 13.994 32.6193C13.727 32.4744 13.3747 32.402 12.9372 32.402H11.2838V40H9.96701ZM17.6005 40V33.4545H18.8321V34.4943H18.9002C19.0196 34.142 19.2298 33.8651 19.5309 33.6634C19.8349 33.4588 20.1786 33.3565 20.5622 33.3565C20.6417 33.3565 20.7355 33.3594 20.8434 33.3651C20.9542 33.3707 21.0409 33.3778 21.1034 33.3864V34.6051C21.0522 34.5909 20.9613 34.5753 20.8306 34.5582C20.7 34.5384 20.5693 34.5284 20.4386 34.5284C20.1375 34.5284 19.869 34.5923 19.6332 34.7202C19.4002 34.8452 19.2156 35.0199 19.0792 35.2443C18.9428 35.4659 18.8747 35.7187 18.8747 36.0028V40H17.6005ZM24.7887 40.1321C24.1751 40.1321 23.6396 39.9915 23.1822 39.7102C22.7248 39.429 22.3697 39.0355 22.1168 38.5298C21.864 38.0241 21.7376 37.4332 21.7376 36.7571C21.7376 36.0781 21.864 35.4844 22.1168 34.9759C22.3697 34.4673 22.7248 34.0724 23.1822 33.7912C23.6396 33.5099 24.1751 33.3693 24.7887 33.3693C25.4024 33.3693 25.9379 33.5099 26.3952 33.7912C26.8526 34.0724 27.2077 34.4673 27.4606 34.9759C27.7134 35.4844 27.8399 36.0781 27.8399 36.7571C27.8399 37.4332 27.7134 38.0241 27.4606 38.5298C27.2077 39.0355 26.8526 39.429 26.3952 39.7102C25.9379 39.9915 25.4024 40.1321 24.7887 40.1321ZM24.793 39.0625C25.1907 39.0625 25.5202 38.9574 25.7816 38.7472C26.043 38.5369 26.2362 38.2571 26.3612 37.9077C26.489 37.5582 26.5529 37.1733 26.5529 36.7528C26.5529 36.3352 26.489 35.9517 26.3612 35.6023C26.2362 35.25 26.043 34.9673 25.7816 34.7543C25.5202 34.5412 25.1907 34.4347 24.793 34.4347C24.3924 34.4347 24.06 34.5412 23.7958 34.7543C23.5345 34.9673 23.3399 35.25 23.212 35.6023C23.087 35.9517 23.0245 36.3352 23.0245 36.7528C23.0245 37.1733 23.087 37.5582 23.212 37.9077C23.3399 38.2571 23.5345 38.5369 23.7958 38.7472C24.06 38.9574 24.3924 39.0625 24.793 39.0625ZM32.4371 33.4545V34.4773H28.7383V33.4545H32.4371ZM29.7525 40V32.696C29.7525 32.2869 29.842 31.9474 30.0209 31.6776C30.1999 31.4048 30.4371 31.2017 30.7326 31.0682C31.028 30.9318 31.3491 30.8636 31.6957 30.8636C31.9513 30.8636 32.1701 30.8849 32.3519 30.9276C32.5337 30.9673 32.6687 31.0043 32.7567 31.0384L32.4584 32.0696C32.3988 32.0526 32.3221 32.0327 32.2283 32.0099C32.1346 31.9844 32.0209 31.9716 31.8874 31.9716C31.5778 31.9716 31.3562 32.0483 31.2226 32.2017C31.092 32.3551 31.0266 32.5767 31.0266 32.8665V40H29.7525ZM33.8118 40V33.4545H35.0859V40H33.8118ZM34.4552 32.4446C34.2336 32.4446 34.0433 32.3707 33.8842 32.223C33.728 32.0724 33.6498 31.8935 33.6498 31.6861C33.6498 31.4759 33.728 31.2969 33.8842 31.1491C34.0433 30.9986 34.2336 30.9233 34.4552 30.9233C34.6768 30.9233 34.8657 30.9986 35.022 31.1491C35.1811 31.2969 35.2606 31.4759 35.2606 31.6861C35.2606 31.8935 35.1811 32.0724 35.022 32.223C34.8657 32.3707 34.6768 32.4446 34.4552 32.4446ZM38.1342 31.2727V40H36.8601V31.2727H38.1342Z" fill="#9CA4AB"/>
<path fill-rule="evenodd" clip-rule="evenodd" d="M23.9847 17.3462C20.1171 17.3462 16.8143 17.931 16.8143 20.2729C16.8143 22.6148 20.0962 23.2205 23.9847 23.2205C27.8524 23.2205 31.1543 22.6348 31.1543 20.2938C31.1543 17.9529 27.8733 17.3462 23.9847 17.3462Z" stroke="#9CA4AB" stroke-width="1.5" stroke-linecap="round" stroke-linejoin="round"/>
<path fill-rule="evenodd" clip-rule="evenodd" d="M23.9848 14.0059C26.5229 14.0059 28.58 11.9478 28.58 9.40972C28.58 6.87163 26.5229 4.81448 23.9848 4.81448C21.4467 4.81448 19.3886 6.87163 19.3886 9.40972C19.38 11.9392 21.4238 13.9973 23.9524 14.0059H23.9848Z" stroke="#9CA4AB" stroke-width="1.42857" stroke-linecap="round" stroke-linejoin="round"/>
</svg>
